# xmcd
#
# Track frame offsets: 
#        150
#        5903
#        20243
#        29843
#        49123
#        61051
#        81904
#        93510
#        107649
#        130175
#        147447
#        167992
#        180528
#        200146
#        221209
#        238170
#        251008
#
# Disc length: 3466 seconds
#
# Revision: 0
# Processed by: cddbd v1.5.2PL0 Copyright (c) Steve Scherf et al.
# Submitted via: ExactAudioCopy v1.0b3
#
DISCID=080d8811
DTITLE=Various Artist - 青春TV倶楽部 バラエティー編 Disc 2 COCP-35914-5
DYEAR=1900
DGENRE=Blues
TTITLE0=ザ・ヒットパレード 
TTITLE1=シンフォニカ 
TTITLE2=世界は笑う
TTITLE3=青い星
TTITLE4=ひと目逢ったその日から
TTITLE5=長い秘密 (シングルヴァージョン) 
TTITLE6=お笑いオンステージの歌 
TTITLE7=シャカリキブルース
TTITLE8=東京は夜の七時 
TTITLE9=風雲!たけし城音頭 
TTITLE10=眠る、眠る、眠る 
TTITLE11=こんちゃんのトンカチうたじまん 
TTITLE12=もしも明日が…。 
TTITLE13=ヒゲのテーマ(DO ME)
TTITLE14=デンセンマンの電線音頭 
TTITLE15=「11P.M.」のテーマ ~ナレーション入り~ 
TTITLE16=歌のメリーゴーラウンド 
EXTD=
EXTT0=
EXTT1=
EXTT2=
EXTT3=
EXTT4=
EXTT5=
EXTT6=
EXTT7=
EXTT8=
EXTT9=
EXTT10=
EXTT11=
EXTT12=
EXTT13=
EXTT14=
EXTT15=
EXTT16=
PLAYORDER=
